<svg width="28" height="28" viewBox="0 0 28 28" fill="none"
    xmlns="http://www.w3.org/2000/svg">
    <g id="mail-01">
        <path id="Icon" d="M2.33203 8.1665L11.8578 14.8345C12.6291 15.3745 13.0148 15.6445 13.4343 15.749C13.8049 15.8414 14.1925 15.8414 14.5631 15.749C14.9826 15.6445 15.3683 15.3745 16.1396 14.8345L25.6654 8.1665M7.93203 23.3332H20.0654C22.0255 23.3332 23.0056 23.3332 23.7543 22.9517C24.4129 22.6161 24.9483 22.0807 25.2839 21.4221C25.6654 20.6734 25.6654 19.6934 25.6654 17.7332V10.2665C25.6654 8.30632 25.6654 7.32623 25.2839 6.57754C24.9483 5.91897 24.4129 5.38354 23.7543 5.04798C23.0056 4.6665 22.0255 4.6665 20.0654 4.6665H7.93203C5.97185 4.6665 4.99176 4.6665 4.24306 5.04798C3.5845 5.38354 3.04907 5.91897 2.71351 6.57754C2.33203 7.32623 2.33203 8.30632 2.33203 10.2665V17.7332C2.33203 19.6934 2.33203 20.6734 2.71351 21.4221C3.04907 22.0807 3.5845 22.6161 4.24306 22.9517C4.99176 23.3332 5.97185 23.3332 7.93203 23.3332Z" stroke="#1C4532" stroke-width="2" stroke-linecap="round" stroke-linejoin="round"/>
    </g>
</svg>
